<svg width="64" height="64" viewBox="0 0 64 64" fill="none" xmlns="http://www.w3.org/2000/svg">
  <!-- 背景 -->
  <circle cx="32" cy="32" r="32" fill="#16A34A"/>
  <!-- 头部 -->
  <circle cx="32" cy="26" r="10" fill="#FDE68A"/>
  <!-- 头发 -->
  <path d="M22 20 C22 16, 26 14, 32 14 C38 14, 42 16, 42 20 L42 24 C42 26, 38 28, 32 28 C26 28, 22 26, 22 24 Z" fill="#92400E"/>
  <!-- 眼睛 -->
  <circle cx="28" cy="24" r="2" fill="#374151"/>
  <circle cx="36" cy="24" r="2" fill="#374151"/>
  <!-- 绿色衬衫 -->
  <rect x="24" y="36" width="16" height="22" rx="2" fill="#22C55E"/>
  <!-- 工具腰带 -->
  <rect x="22" y="44" width="20" height="4" fill="#92400E"/>
  <!-- 小工具 -->
  <rect x="26" y="42" width="2" height="6" fill="#6B7280"/>
  <rect x="30" y="42" width="2" height="6" fill="#6B7280"/>
  <rect x="34" y="42" width="2" height="6" fill="#6B7280"/>
</svg>
